<svg width="33" height="32" viewBox="0 0 33 32" fill="none" xmlns="http://www.w3.org/2000/svg">
<path fill-rule="evenodd" clip-rule="evenodd" d="M15.819 0.580073C15.3822 0.724073 15.1303 0.980073 15.0083 1.39807C14.9394 1.63207 14.9276 2.17607 14.9276 5.01607C14.9276 8.77807 14.9237 8.73007 15.3015 9.11407C15.8072 9.62607 16.9879 9.62607 17.4937 9.11407C17.8715 8.73007 17.8676 8.77807 17.8676 5.01607C17.8676 1.37607 17.8617 1.31207 17.5704 0.960073C17.3264 0.666073 17.0647 0.568073 16.4763 0.552073C16.2568 0.539438 16.0367 0.548817 15.819 0.580073ZM6.07226 4.53207C5.76134 4.67607 5.30283 5.13207 5.14344 5.45607C5.06143 5.61782 5.0167 5.7964 5.0126 5.97831C5.00851 6.16022 5.04518 6.34069 5.11983 6.50607C5.26545 6.83607 9.83873 11.5001 10.1988 11.6861C10.7105 11.9527 11.2307 11.8234 11.7593 11.2981C12.2789 10.7821 12.4166 10.2221 12.1529 9.70007C11.9699 9.33407 7.38088 4.68607 7.05619 4.53807C6.90097 4.47001 6.73387 4.43441 6.56483 4.43338C6.39579 4.43234 6.22827 4.46591 6.07226 4.53207ZM25.9475 4.56407C25.7055 4.67807 25.2922 5.07207 23.3205 7.08207C21.5081 8.92807 20.9551 9.52407 20.8666 9.72007C20.7934 9.88269 20.7556 10.0595 20.756 10.2383C20.7563 10.4171 20.7947 10.5937 20.8685 10.7561C21.0063 11.0561 21.4589 11.5281 21.7639 11.6901C22.0728 11.8541 22.5314 11.8521 22.8521 11.6861C23.1807 11.5141 27.7265 6.89407 27.8957 6.56007C27.9761 6.38804 28.0182 6.20017 28.0192 6.00974C28.0203 5.81932 27.9801 5.63099 27.9016 5.45807C27.6838 5.08794 27.3762 4.78081 27.0082 4.56607C26.8453 4.47683 26.6632 4.42995 26.4781 4.4296C26.2931 4.42925 26.1108 4.47545 25.9475 4.56407ZM2.0303 14.5841C1.45044 14.7694 1.16117 15.2407 1.16248 15.9981C1.16445 16.7721 1.44782 17.2361 2.02833 17.4121C2.26054 17.4821 2.77808 17.4941 5.59014 17.4941C8.52027 17.4941 8.91187 17.4841 9.15195 17.4041C9.32845 17.3455 9.48886 17.2454 9.62016 17.1119C9.75146 16.9785 9.84994 16.8155 9.9076 16.6361C10.0768 16.1061 9.99222 15.3541 9.72262 14.9821C9.61517 14.862 9.48799 14.7619 9.34677 14.6861L9.07717 14.5341L5.66689 14.5221C2.92174 14.5141 2.21134 14.5261 2.0303 14.5841ZM23.7672 14.5561C23.5012 14.6309 23.2608 14.779 23.0725 14.9841C22.8029 15.3541 22.7183 16.1061 22.8875 16.6361C23.0017 16.9961 23.289 17.2881 23.6432 17.4041C23.8833 17.4841 24.2749 17.4941 27.205 17.4941C30.0171 17.4941 30.5346 17.4821 30.7668 17.4121C31.3473 17.2361 31.6307 16.7721 31.6327 15.9981C31.6327 15.2281 31.3434 14.7661 30.7432 14.5821C30.5405 14.5201 29.9049 14.5081 27.2129 14.5121C25.4064 14.5161 23.8557 14.5361 23.7672 14.5561ZM10.2047 20.5641C9.9627 20.6781 9.54945 21.0721 7.57767 23.0821C5.76528 24.9281 5.21231 25.5241 5.12376 25.7201C5.05057 25.8827 5.01285 26.0595 5.01319 26.2383C5.01353 26.4171 5.05192 26.5937 5.12573 26.7561C5.26348 27.0561 5.71608 27.5281 6.0211 27.6901C6.33005 27.8541 6.78856 27.8521 7.10932 27.6861C7.43795 27.5141 11.9837 22.8941 12.1529 22.5601C12.2333 22.388 12.2754 22.2002 12.2764 22.0097C12.2775 21.8193 12.2373 21.631 12.1588 21.4581C11.941 21.0879 11.6334 20.7808 11.2654 20.5661C11.1025 20.4768 10.9204 20.43 10.7353 20.4296C10.5503 20.4293 10.368 20.4754 10.2047 20.5641ZM21.8151 20.5321C21.5041 20.6761 21.0456 21.1321 20.8862 21.4561C20.8042 21.6178 20.7595 21.7964 20.7554 21.9783C20.7513 22.1602 20.788 22.3407 20.8626 22.5061C21.0082 22.8361 25.5815 27.5001 25.9416 27.6861C26.4533 27.9527 26.9734 27.8234 27.5021 27.2981C28.0217 26.7821 28.1594 26.2221 27.8957 25.7001C27.7127 25.3341 23.1237 20.6861 22.799 20.5381C22.6438 20.47 22.4767 20.4344 22.3076 20.4334C22.1386 20.4323 21.9711 20.4659 21.8151 20.5321ZM15.8958 22.5541C15.63 22.6304 15.3898 22.7791 15.2011 22.9841C14.9296 23.3561 14.9276 23.3821 14.9276 26.9781C14.9276 29.8421 14.9394 30.3681 15.0083 30.6041C15.1788 31.1907 15.6419 31.4834 16.3976 31.4821C17.1532 31.4847 17.6163 31.1921 17.7869 30.6041C17.9089 30.1801 17.9069 23.7501 17.7829 23.3801C17.7446 23.231 17.6747 23.0922 17.5782 22.9734C17.4817 22.8546 17.3608 22.7586 17.2241 22.6921C17.0076 22.5721 16.8817 22.5421 16.5097 22.5281C16.3047 22.515 16.099 22.5237 15.8958 22.5541Z" fill="white"/>
</svg>
