<svg width="38" height="39" viewBox="0 0 38 39" fill="none" xmlns="http://www.w3.org/2000/svg">
<path d="M32.9056 11.5319L26.9681 5.59439C26.8572 5.48434 26.7256 5.39726 26.5809 5.33817C26.4362 5.27907 26.2813 5.24912 26.125 5.25002H7.125C6.49511 5.25002 5.89102 5.50024 5.44562 5.94564C5.00022 6.39104 4.75 6.99513 4.75 7.62502V31.375C4.75 32.0049 5.00022 32.609 5.44562 33.0544C5.89102 33.4998 6.49511 33.75 7.125 33.75H30.875C31.5049 33.75 32.109 33.4998 32.5544 33.0544C32.9998 32.609 33.25 32.0049 33.25 31.375V12.375C33.2509 12.2187 33.2209 12.0638 33.1619 11.9191C33.1028 11.7744 33.0157 11.6429 32.9056 11.5319ZM14.25 7.62502H23.75V12.375H14.25V7.62502ZM23.75 31.375H14.25V21.875H23.75V31.375ZM26.125 31.375V21.875C26.125 21.2451 25.8748 20.641 25.4294 20.1956C24.984 19.7502 24.3799 19.5 23.75 19.5H14.25C13.6201 19.5 13.016 19.7502 12.5706 20.1956C12.1252 20.641 11.875 21.2451 11.875 21.875V31.375H7.125V7.62502H11.875V12.375C11.875 13.0049 12.1252 13.609 12.5706 14.0544C13.016 14.4998 13.6201 14.75 14.25 14.75H23.75C24.3799 14.75 24.984 14.4998 25.4294 14.0544C25.8748 13.609 26.125 13.0049 26.125 12.375V8.11189L30.875 12.8619V31.375H26.125Z" fill="black"/>
</svg>
