<svg width="436" height="382" viewBox="0 0 436 382" fill="none" xmlns="http://www.w3.org/2000/svg">
<rect x="7.5" y="7.5" width="367" height="367" rx="92.5" fill="black" stroke="#00E5FF" stroke-width="15"/>
<path d="M283.882 278.233C283.882 277.13 284.055 276.061 284.399 275.061H217.522V157.889C217.522 155.993 215.971 154.442 214.075 154.442C212.179 154.442 210.628 155.993 210.628 157.889V281.956H284.606C284.158 280.818 283.882 279.543 283.882 278.233Z" fill="#06F3FF"/>
<path d="M79.3561 286.92C78.1495 283.921 75.2193 281.784 71.7721 281.784C67.2562 281.784 63.6021 285.438 63.6021 289.954C63.6021 294.47 67.2562 298.124 71.7721 298.124C75.047 298.124 77.8737 296.193 79.1837 293.401C79.6663 292.367 79.9421 291.195 79.9421 289.954C79.9421 288.885 79.7353 287.851 79.3561 286.92Z" fill="#E6E6E6"/>
<path d="M293.776 268.374C289.432 268.374 285.744 271.166 284.434 275.061C284.089 276.061 283.917 277.13 283.917 278.233C283.917 279.543 284.158 280.784 284.641 281.956C286.123 285.576 289.639 288.127 293.81 288.127C299.257 288.127 303.704 283.714 303.704 278.233C303.67 272.786 299.223 268.374 293.776 268.374ZM241.309 102.836C242.033 101.078 241.205 99.044 239.447 98.3201C212.558 87.1854 192.806 92.9424 180.981 99.7335C168.158 107.076 161.78 117.039 161.539 117.487C160.539 119.107 161.022 121.21 162.608 122.244C163.194 122.589 163.814 122.761 164.435 122.761C165.572 122.761 166.71 122.21 167.365 121.175C167.434 121.072 173.26 112.075 184.67 105.594C199.872 97.0101 217.385 96.6999 236.793 104.732C238.551 105.421 240.585 104.594 241.309 102.836Z" fill="#00E5FF"/>
<path d="M293.776 296.607C289.501 296.607 285.882 299.296 284.503 303.088H184.256V261.272H210.628V247.483H184.256V199.428C184.256 197.532 182.705 195.981 180.809 195.981C178.913 195.981 177.362 197.532 177.362 199.428V247.483H154.3V199.428C154.3 197.532 152.748 195.981 150.852 195.981C148.956 195.981 147.405 197.532 147.405 199.428V247.483H110.037C79.494 247.483 54.6392 222.629 54.6392 192.086C54.6392 161.543 79.494 136.688 110.037 136.688C127.583 136.688 144.268 145.134 154.679 159.302C156.92 162.37 161.263 163.025 164.331 160.785C167.399 158.544 168.054 154.2 165.813 151.132C159.505 142.583 151.197 135.482 141.786 130.621C139.063 129.208 136.236 127.967 133.34 126.932C146.888 95.5624 177.913 74.9477 212.558 74.9477C260.131 74.9477 298.843 113.66 298.843 161.233C298.843 207.116 262.854 244.726 217.591 247.345V261.169C242.446 259.962 265.612 249.69 283.331 231.971C302.222 213.08 312.633 187.949 312.633 161.233C312.633 134.516 302.222 109.386 283.331 90.4949C264.44 71.6039 239.309 61.1931 212.593 61.1931C171.639 61.1931 135.064 86.0479 119.827 123.658C116.621 123.209 113.346 122.968 110.106 122.968C71.9445 122.968 40.9191 153.994 40.9191 192.155C40.9191 230.316 71.9445 261.341 110.106 261.341H147.474V286.817H86.4919C85.0096 280.06 78.9769 274.958 71.7721 274.958C63.4642 274.958 56.7075 281.715 56.7075 290.023C56.7075 298.331 63.4642 305.087 71.7721 305.087C78.8045 305.087 84.7338 300.227 86.3885 293.711H154.3V261.341H177.362V310.051H284.537C285.951 313.774 289.57 316.429 293.776 316.429C299.223 316.429 303.67 312.016 303.67 306.535C303.67 301.019 299.223 296.607 293.776 296.607ZM79.1837 293.401C77.8738 296.193 75.047 298.124 71.7721 298.124C67.2562 298.124 63.6021 294.47 63.6021 289.954C63.6021 285.438 67.2562 281.784 71.7721 281.784C75.1849 281.784 78.1495 283.921 79.3561 286.92C79.7353 287.851 79.9421 288.885 79.9421 289.954C79.9421 291.195 79.6663 292.367 79.1837 293.401Z" fill="#00E5FF"/>
<rect x="353" y="95" width="29" height="146" fill="black"/>
<rect x="328" y="130" width="88" height="15" rx="7.5" fill="#00E5FF"/>
<rect x="338" y="163" width="98" height="15" rx="7.5" fill="#00E5FF"/>
<rect x="328" y="196" width="79" height="15" rx="7.5" fill="#00E5FF"/>
</svg>
